<svg xmlns="http://www.w3.org/2000/svg" xmlns:xlink="http://www.w3.org/1999/xlink" width="500" zoomAndPan="magnify" viewBox="0 0 375 374.999991" height="500" preserveAspectRatio="xMidYMid meet" version="1.0"><defs><g/><clipPath id="c4215b38e9"><path d="M 76.652344 149 L 298.652344 149 L 298.652344 313.5 L 76.652344 313.5 Z M 76.652344 149 " clip-rule="nonzero"/></clipPath><clipPath id="3320b4b64d"><path d="M 94 1.5 L 282 1.5 L 282 158 L 94 158 Z M 94 1.5 " clip-rule="nonzero"/></clipPath></defs><rect x="-37.5" width="450" fill="#ffffff" y="-37.499999" height="449.999989" fill-opacity="1"/><rect x="-37.5" width="450" fill="#ffffff" y="-37.499999" height="449.999989" fill-opacity="1"/><g clip-path="url(#c4215b38e9)"><path fill="#000000" d="M 280.269531 313.480469 L 94.988281 313.480469 C 84.875 313.480469 76.652344 305.277344 76.652344 295.226562 L 76.652344 167.613281 C 76.652344 157.566406 84.917969 149.316406 94.988281 149.316406 L 280.269531 149.316406 C 290.425781 149.316406 298.605469 157.523438 298.605469 167.613281 L 298.605469 295.226562 C 298.652344 305.277344 290.425781 313.480469 280.269531 313.480469 Z M 94.988281 157.871094 C 89.625 157.871094 85.226562 162.261719 85.226562 167.613281 L 85.226562 295.226562 C 85.226562 300.578125 89.625 304.96875 94.988281 304.96875 L 280.269531 304.96875 C 285.632812 304.96875 290.03125 300.578125 290.03125 295.226562 L 290.03125 167.613281 C 290.03125 162.261719 285.632812 157.871094 280.269531 157.871094 Z M 94.988281 157.871094 " fill-opacity="1" fill-rule="evenodd"/></g><g clip-path="url(#3320b4b64d)"><path fill="#000000" d="M 141.957031 157.871094 C 139.582031 157.871094 137.691406 155.984375 137.691406 153.617188 L 137.691406 87.046875 C 137.691406 74.144531 143.191406 63.347656 153.480469 55.84375 C 162.363281 49.394531 174.238281 45.882812 187.035156 45.882812 C 211.925781 45.882812 237.214844 60.015625 237.214844 87.046875 C 237.214844 95.953125 237.699219 104.421875 243.8125 109.644531 C 246.492188 111.972656 249.96875 113.199219 253.75 113.070312 C 270.679688 112.894531 272.527344 95.515625 272.527344 88.054688 C 272.527344 63.699219 263.335938 43.46875 246.054688 29.429688 C 230.707031 16.921875 209.726562 10.03125 187.210938 10.03125 C 145.386719 10.03125 102.992188 35.132812 102.992188 83.054688 L 102.992188 153.617188 C 102.992188 155.984375 101.101562 157.871094 98.726562 157.871094 C 96.351562 157.871094 94.460938 155.984375 94.460938 153.617188 L 94.460938 83.097656 C 94.460938 58.039062 104.578125 36.976562 123.707031 21.96875 C 140.550781 8.804688 163.15625 1.519531 187.210938 1.519531 C 211.707031 1.519531 234.53125 9.066406 251.464844 22.757812 C 270.8125 38.511719 281.058594 61.023438 281.058594 87.96875 C 281.058594 108.503906 270.636719 121.363281 253.882812 121.539062 C 247.988281 121.667969 242.578125 119.78125 238.269531 116.050781 C 228.683594 107.847656 228.683594 94.8125 228.683594 87.003906 C 228.683594 64.578125 207.132812 54.351562 187.035156 54.351562 C 167.378906 54.351562 146.179688 64.578125 146.179688 87.003906 L 146.179688 153.617188 C 146.222656 155.984375 144.332031 157.871094 141.957031 157.871094 Z M 141.957031 157.871094 " fill-opacity="1" fill-rule="evenodd"/></g><path fill="#000000" d="M 258.9375 291.011719 L 116.320312 291.011719 C 108.445312 291.011719 102.027344 284.605469 102.027344 276.796875 L 102.027344 186 C 102.027344 178.148438 108.445312 171.828125 116.320312 171.828125 L 258.9375 171.828125 C 266.855469 171.828125 273.1875 178.234375 273.1875 186 L 273.1875 276.75 C 273.230469 284.605469 266.855469 291.011719 258.9375 291.011719 Z M 116.320312 180.339844 C 113.109375 180.339844 110.558594 182.929688 110.558594 186 L 110.558594 276.75 C 110.558594 279.910156 113.109375 282.414062 116.320312 282.414062 L 258.9375 282.414062 C 262.148438 282.414062 264.65625 279.867188 264.65625 276.75 L 264.65625 186 C 264.65625 182.84375 262.0625 180.339844 258.9375 180.339844 Z M 116.320312 180.339844 " fill-opacity="1" fill-rule="evenodd"/><path fill="#000000" d="M 188.179688 259.503906 C 184.660156 259.503906 181.097656 258.847656 178.109375 257.574219 C 171.773438 254.808594 167.90625 249.019531 167.730469 242.039062 C 167.640625 239.625 169.578125 237.695312 171.863281 237.652344 C 174.238281 237.5625 176.21875 239.453125 176.261719 241.777344 C 176.347656 245.375 178.285156 248.316406 181.539062 249.71875 C 185.1875 251.300781 191.167969 251.300781 194.511719 249.761719 C 197.328125 248.492188 198.996094 246.121094 198.996094 243.445312 C 198.996094 241.601562 198.515625 239.453125 194.777344 237.738281 C 192.929688 236.90625 190.246094 236.335938 187.34375 235.765625 C 179.515625 234.054688 167.640625 231.550781 167.640625 219.308594 C 167.640625 213.253906 171.335938 207.855469 177.140625 205.222656 C 182.8125 202.675781 191.167969 202.675781 197.105469 205.222656 C 203.394531 207.898438 207.308594 213.691406 207.484375 220.757812 C 207.527344 223.125 205.636719 225.101562 203.308594 225.144531 C 200.933594 225.1875 198.996094 223.300781 198.910156 220.976562 C 198.820312 217.335938 196.929688 214.480469 193.71875 213.078125 C 190.027344 211.410156 184.132812 211.410156 180.660156 213.035156 C 177.84375 214.304688 176.21875 216.675781 176.21875 219.351562 C 176.21875 223.871094 179.558594 225.363281 189.148438 227.472656 C 192.53125 228.171875 195.609375 228.875 198.335938 230.058594 C 205.902344 233.570312 207.484375 239.320312 207.484375 243.53125 C 207.484375 249.589844 203.878906 254.941406 198.074219 257.617188 C 195.257812 258.890625 191.742188 259.503906 188.179688 259.503906 Z M 188.179688 259.503906 " fill-opacity="1" fill-rule="evenodd"/><path fill="#000000" d="M 187.035156 269.6875 C 184.660156 269.6875 182.726562 267.800781 182.726562 265.429688 L 182.726562 255.25 C 182.726562 252.878906 184.660156 250.992188 187.035156 250.992188 C 189.410156 250.992188 191.300781 252.878906 191.300781 255.25 L 191.300781 265.429688 C 191.300781 267.800781 189.410156 269.6875 187.035156 269.6875 Z M 187.035156 211.804688 C 184.660156 211.804688 182.726562 209.917969 182.726562 207.546875 L 182.726562 197.367188 C 182.726562 194.996094 184.660156 193.109375 187.035156 193.109375 C 189.410156 193.109375 191.300781 194.996094 191.300781 197.367188 L 191.300781 207.546875 C 191.300781 209.917969 189.410156 211.804688 187.035156 211.804688 Z M 187.035156 211.804688 " fill-opacity="1" fill-rule="evenodd"/><path fill="#000000" d="M 127.003906 206.011719 L 106.335938 206.011719 C 103.960938 206.011719 102.070312 204.125 102.070312 201.753906 C 102.070312 199.386719 103.960938 197.457031 106.335938 197.457031 L 127.003906 197.457031 C 129.378906 197.457031 131.273438 199.386719 131.273438 201.753906 C 131.273438 204.125 129.292969 206.011719 127.003906 206.011719 Z M 127.003906 206.011719 " fill-opacity="1" fill-rule="evenodd"/><path fill="#000000" d="M 127.003906 235.675781 L 106.335938 235.675781 C 103.960938 235.675781 102.070312 233.789062 102.070312 231.421875 C 102.070312 229.050781 103.960938 227.164062 106.335938 227.164062 L 127.003906 227.164062 C 129.378906 227.164062 131.273438 229.050781 131.273438 231.421875 C 131.273438 233.789062 129.292969 235.675781 127.003906 235.675781 Z M 127.003906 235.675781 " fill-opacity="1" fill-rule="evenodd"/><path fill="#000000" d="M 127.003906 265.296875 L 106.335938 265.296875 C 103.960938 265.296875 102.070312 263.410156 102.070312 261.042969 C 102.070312 258.671875 103.960938 256.785156 106.335938 256.785156 L 127.003906 256.785156 C 129.378906 256.785156 131.273438 258.671875 131.273438 261.042969 C 131.273438 263.410156 129.292969 265.296875 127.003906 265.296875 Z M 127.003906 265.296875 " fill-opacity="1" fill-rule="evenodd"/><path fill="#000000" d="M 268.964844 206.011719 L 248.339844 206.011719 C 245.964844 206.011719 244.074219 204.125 244.074219 201.753906 C 244.074219 199.386719 245.964844 197.457031 248.339844 197.457031 L 268.964844 197.457031 C 271.339844 197.457031 273.230469 199.386719 273.230469 201.753906 C 273.230469 204.125 271.296875 206.011719 268.964844 206.011719 Z M 268.964844 206.011719 " fill-opacity="1" fill-rule="evenodd"/><path fill="#000000" d="M 268.964844 235.675781 L 248.339844 235.675781 C 245.964844 235.675781 244.074219 233.789062 244.074219 231.421875 C 244.074219 229.050781 245.964844 227.164062 248.339844 227.164062 L 268.964844 227.164062 C 271.339844 227.164062 273.230469 229.050781 273.230469 231.421875 C 273.230469 233.789062 271.296875 235.675781 268.964844 235.675781 Z M 268.964844 235.675781 " fill-opacity="1" fill-rule="evenodd"/><path fill="#000000" d="M 268.964844 265.296875 L 248.339844 265.296875 C 245.964844 265.296875 244.074219 263.410156 244.074219 261.042969 C 244.074219 258.671875 245.964844 256.785156 248.339844 256.785156 L 268.964844 256.785156 C 271.339844 256.785156 273.230469 258.671875 273.230469 261.042969 C 273.230469 263.410156 271.296875 265.296875 268.964844 265.296875 Z M 268.964844 265.296875 " fill-opacity="1" fill-rule="evenodd"/><path fill="#000000" d="M 114.339844 144.882812 C 111.964844 144.882812 110.074219 142.996094 110.074219 140.628906 L 110.074219 82.570312 C 110.074219 61.15625 118.914062 43.207031 135.667969 30.699219 C 156.164062 15.339844 186.640625 10.46875 213.335938 18.28125 C 215.621094 18.941406 216.898438 21.308594 216.28125 23.546875 C 215.621094 25.828125 213.203125 27.101562 210.960938 26.488281 C 186.773438 19.421875 159.242188 23.8125 140.769531 37.589844 C 130.65625 45.136719 118.605469 59.09375 118.605469 82.613281 L 118.605469 140.671875 C 118.605469 142.996094 116.714844 144.882812 114.339844 144.882812 Z M 114.339844 144.882812 " fill-opacity="1" fill-rule="evenodd"/><g fill="#000000" fill-opacity="1"><g transform="translate(3.15625, 352.499977)"><g><path d="M 22.890625 -28.5625 L 22.890625 -23.8125 L 14.65625 -23.8125 L 14.65625 0 L 9.03125 0 L 9.03125 -23.8125 L 0.78125 -23.8125 L 0.78125 -28.5625 Z M 22.890625 -28.5625 "/></g></g></g><g fill="#000000" fill-opacity="1"><g transform="translate(26.825812, 352.499977)"><g><path d="M 3.109375 0 L 3.109375 -30.203125 L 8.515625 -30.203125 L 8.515625 -18.734375 L 8.921875 -18.65625 C 9.640625 -19.707031 10.519531 -20.519531 11.5625 -21.09375 C 12.601562 -21.664062 13.859375 -21.953125 15.328125 -21.953125 C 20.085938 -21.953125 22.46875 -19.257812 22.46875 -13.875 L 22.46875 0 L 17.046875 0 L 17.046875 -13.1875 C 17.046875 -14.65625 16.753906 -15.722656 16.171875 -16.390625 C 15.585938 -17.054688 14.675781 -17.390625 13.4375 -17.390625 C 11.925781 -17.390625 10.726562 -16.882812 9.84375 -15.875 C 8.957031 -14.863281 8.515625 -13.289062 8.515625 -11.15625 L 8.515625 0 Z M 3.109375 0 "/></g></g></g><g fill="#000000" fill-opacity="1"><g transform="translate(52.057722, 352.499977)"><g><path d="M 21.296875 -9.546875 L 7.4375 -9.546875 C 7.59375 -7.671875 8.125 -6.304688 9.03125 -5.453125 C 9.945312 -4.609375 11.195312 -4.1875 12.78125 -4.1875 C 14.007812 -4.1875 15.007812 -4.414062 15.78125 -4.875 C 16.550781 -5.332031 17.171875 -6.03125 17.640625 -6.96875 L 18.046875 -6.96875 L 21.640625 -4.671875 C 20.941406 -3.160156 19.878906 -1.9375 18.453125 -1 C 17.035156 -0.0625 15.144531 0.40625 12.78125 0.40625 C 10.550781 0.40625 8.625 -0.015625 7 -0.859375 C 5.382812 -1.703125 4.132812 -2.960938 3.25 -4.640625 C 2.375 -6.316406 1.9375 -8.359375 1.9375 -10.765625 C 1.9375 -13.210938 2.394531 -15.273438 3.3125 -16.953125 C 4.238281 -18.628906 5.488281 -19.878906 7.0625 -20.703125 C 8.644531 -21.535156 10.421875 -21.953125 12.390625 -21.953125 C 15.429688 -21.953125 17.757812 -21.144531 19.375 -19.53125 C 21 -17.914062 21.8125 -15.546875 21.8125 -12.421875 C 21.8125 -11.285156 21.773438 -10.40625 21.703125 -9.78125 Z M 16.640625 -13.046875 C 16.585938 -14.691406 16.207031 -15.882812 15.5 -16.625 C 14.789062 -17.375 13.753906 -17.75 12.390625 -17.75 C 9.648438 -17.75 8.039062 -16.179688 7.5625 -13.046875 Z M 16.640625 -13.046875 "/></g></g></g><g fill="#000000" fill-opacity="1"><g transform="translate(75.473408, 352.499977)"><g/></g></g><g fill="#000000" fill-opacity="1"><g transform="translate(84.906086, 352.499977)"><g><path d="M 15.140625 0.40625 C 11.203125 0.40625 8.28125 -0.523438 6.375 -2.390625 C 4.476562 -4.265625 3.53125 -7.035156 3.53125 -10.703125 L 3.53125 -28.5625 L 9.0625 -28.5625 L 9.0625 -10.75 C 9.0625 -8.664062 9.5625 -7.101562 10.5625 -6.0625 C 11.570312 -5.019531 13.097656 -4.5 15.140625 -4.5 C 19.191406 -4.5 21.21875 -6.582031 21.21875 -10.75 L 21.21875 -28.5625 L 26.734375 -28.5625 L 26.734375 -10.703125 C 26.734375 -7.035156 25.78125 -4.265625 23.875 -2.390625 C 21.976562 -0.523438 19.066406 0.40625 15.140625 0.40625 Z M 15.140625 0.40625 "/></g></g></g><g fill="#000000" fill-opacity="1"><g transform="translate(115.176564, 352.499977)"><g><path d="M 3.109375 0 L 3.109375 -21.546875 L 8.296875 -21.546875 L 8.296875 -18.375 L 8.71875 -18.28125 C 10.050781 -20.726562 12.222656 -21.953125 15.234375 -21.953125 C 17.722656 -21.953125 19.550781 -21.273438 20.71875 -19.921875 C 21.882812 -18.566406 22.46875 -16.59375 22.46875 -14 L 22.46875 0 L 17.046875 0 L 17.046875 -13.34375 C 17.046875 -14.769531 16.757812 -15.800781 16.1875 -16.4375 C 15.613281 -17.070312 14.695312 -17.390625 13.4375 -17.390625 C 11.882812 -17.390625 10.675781 -16.882812 9.8125 -15.875 C 8.945312 -14.875 8.515625 -13.300781 8.515625 -11.15625 L 8.515625 0 Z M 3.109375 0 "/></g></g></g><g fill="#000000" fill-opacity="1"><g transform="translate(140.408474, 352.499977)"><g><path d="M 10.078125 0.40625 C 8.609375 0.40625 7.257812 0.234375 6.03125 -0.109375 C 4.8125 -0.453125 3.769531 -0.925781 2.90625 -1.53125 C 2.039062 -2.132812 1.398438 -2.828125 0.984375 -3.609375 L 3.984375 -6.859375 L 4.390625 -6.859375 C 5.109375 -5.890625 5.957031 -5.164062 6.9375 -4.6875 C 7.914062 -4.207031 8.976562 -3.96875 10.125 -3.96875 C 11.175781 -3.96875 11.96875 -4.15625 12.5 -4.53125 C 13.03125 -4.90625 13.296875 -5.445312 13.296875 -6.15625 C 13.296875 -6.695312 13.101562 -7.15625 12.71875 -7.53125 C 12.34375 -7.90625 11.722656 -8.195312 10.859375 -8.40625 L 8.015625 -9.078125 C 5.878906 -9.585938 4.316406 -10.363281 3.328125 -11.40625 C 2.347656 -12.457031 1.859375 -13.789062 1.859375 -15.40625 C 1.859375 -16.75 2.195312 -17.914062 2.875 -18.90625 C 3.5625 -19.894531 4.523438 -20.648438 5.765625 -21.171875 C 7.015625 -21.691406 8.46875 -21.953125 10.125 -21.953125 C 12.0625 -21.953125 13.664062 -21.671875 14.9375 -21.109375 C 16.21875 -20.554688 17.21875 -19.8125 17.9375 -18.875 L 15.046875 -15.75 L 14.65625 -15.75 C 14.050781 -16.425781 13.375 -16.921875 12.625 -17.234375 C 11.875 -17.546875 11.039062 -17.703125 10.125 -17.703125 C 7.988281 -17.703125 6.921875 -17.035156 6.921875 -15.703125 C 6.921875 -15.140625 7.117188 -14.679688 7.515625 -14.328125 C 7.910156 -13.984375 8.609375 -13.703125 9.609375 -13.484375 L 12.265625 -12.890625 C 14.453125 -12.421875 16.050781 -11.664062 17.0625 -10.625 C 18.070312 -9.59375 18.578125 -8.207031 18.578125 -6.46875 C 18.578125 -5.101562 18.238281 -3.898438 17.5625 -2.859375 C 16.882812 -1.816406 15.90625 -1.007812 14.625 -0.4375 C 13.351562 0.125 11.835938 0.40625 10.078125 0.40625 Z M 10.078125 0.40625 "/></g></g></g><g fill="#000000" fill-opacity="1"><g transform="translate(160.269819, 352.499977)"><g><path d="M 21.296875 -9.546875 L 7.4375 -9.546875 C 7.59375 -7.671875 8.125 -6.304688 9.03125 -5.453125 C 9.945312 -4.609375 11.195312 -4.1875 12.78125 -4.1875 C 14.007812 -4.1875 15.007812 -4.414062 15.78125 -4.875 C 16.550781 -5.332031 17.171875 -6.03125 17.640625 -6.96875 L 18.046875 -6.96875 L 21.640625 -4.671875 C 20.941406 -3.160156 19.878906 -1.9375 18.453125 -1 C 17.035156 -0.0625 15.144531 0.40625 12.78125 0.40625 C 10.550781 0.40625 8.625 -0.015625 7 -0.859375 C 5.382812 -1.703125 4.132812 -2.960938 3.25 -4.640625 C 2.375 -6.316406 1.9375 -8.359375 1.9375 -10.765625 C 1.9375 -13.210938 2.394531 -15.273438 3.3125 -16.953125 C 4.238281 -18.628906 5.488281 -19.878906 7.0625 -20.703125 C 8.644531 -21.535156 10.421875 -21.953125 12.390625 -21.953125 C 15.429688 -21.953125 17.757812 -21.144531 19.375 -19.53125 C 21 -17.914062 21.8125 -15.546875 21.8125 -12.421875 C 21.8125 -11.285156 21.773438 -10.40625 21.703125 -9.78125 Z M 16.640625 -13.046875 C 16.585938 -14.691406 16.207031 -15.882812 15.5 -16.625 C 14.789062 -17.375 13.753906 -17.75 12.390625 -17.75 C 9.648438 -17.75 8.039062 -16.179688 7.5625 -13.046875 Z M 16.640625 -13.046875 "/></g></g></g><g fill="#000000" fill-opacity="1"><g transform="translate(183.685506, 352.499977)"><g><path d="M 12.5625 0.40625 C 10.476562 0.40625 8.632812 -0.0234375 7.03125 -0.890625 C 5.425781 -1.753906 4.175781 -3.023438 3.28125 -4.703125 C 2.382812 -6.390625 1.9375 -8.410156 1.9375 -10.765625 C 1.9375 -13.128906 2.382812 -15.148438 3.28125 -16.828125 C 4.175781 -18.515625 5.414062 -19.789062 7 -20.65625 C 8.59375 -21.519531 10.414062 -21.953125 12.46875 -21.953125 C 17.007812 -21.953125 19.914062 -20.304688 21.1875 -17.015625 L 17.484375 -14.359375 L 17.078125 -14.359375 C 16.628906 -15.367188 16.050781 -16.117188 15.34375 -16.609375 C 14.632812 -17.109375 13.675781 -17.359375 12.46875 -17.359375 C 10.90625 -17.359375 9.6875 -16.816406 8.8125 -15.734375 C 7.9375 -14.660156 7.5 -13.003906 7.5 -10.765625 C 7.5 -8.546875 7.941406 -6.894531 8.828125 -5.8125 C 9.710938 -4.726562 10.957031 -4.1875 12.5625 -4.1875 C 13.726562 -4.1875 14.71875 -4.5 15.53125 -5.125 C 16.351562 -5.757812 16.9375 -6.671875 17.28125 -7.859375 L 17.703125 -7.890625 L 21.546875 -5.78125 C 20.992188 -3.957031 19.976562 -2.46875 18.5 -1.3125 C 17.03125 -0.164062 15.050781 0.40625 12.5625 0.40625 Z M 12.5625 0.40625 "/></g></g></g><g fill="#000000" fill-opacity="1"><g transform="translate(205.890384, 352.499977)"><g><path d="M 9.859375 0.40625 C 7.441406 0.40625 5.65625 -0.253906 4.5 -1.578125 C 3.351562 -2.898438 2.78125 -4.796875 2.78125 -7.265625 L 2.78125 -21.546875 L 8.1875 -21.546875 L 8.1875 -7.953125 C 8.1875 -6.640625 8.46875 -5.675781 9.03125 -5.0625 C 9.601562 -4.457031 10.476562 -4.15625 11.65625 -4.15625 C 13.15625 -4.15625 14.320312 -4.644531 15.15625 -5.625 C 15.988281 -6.613281 16.40625 -8.164062 16.40625 -10.28125 L 16.40625 -21.546875 L 21.8125 -21.546875 L 21.8125 0 L 16.625 0 L 16.625 -3.171875 L 16.21875 -3.265625 C 15.519531 -2.023438 14.671875 -1.101562 13.671875 -0.5 C 12.679688 0.101562 11.410156 0.40625 9.859375 0.40625 Z M 9.859375 0.40625 "/></g></g></g><g fill="#000000" fill-opacity="1"><g transform="translate(230.809824, 352.499977)"><g><path d="M 3.109375 0 L 3.109375 -21.546875 L 8.359375 -21.546875 L 8.359375 -18.34375 L 8.765625 -18.265625 C 9.285156 -19.460938 9.96875 -20.335938 10.8125 -20.890625 C 11.664062 -21.453125 12.695312 -21.734375 13.90625 -21.734375 C 15.132812 -21.734375 16.066406 -21.523438 16.703125 -21.109375 L 15.78125 -16.453125 L 15.375 -16.375 C 15.019531 -16.507812 14.679688 -16.609375 14.359375 -16.671875 C 14.035156 -16.742188 13.640625 -16.78125 13.171875 -16.78125 C 11.660156 -16.78125 10.503906 -16.25 9.703125 -15.1875 C 8.910156 -14.125 8.515625 -12.421875 8.515625 -10.078125 L 8.515625 0 Z M 3.109375 0 "/></g></g></g><g fill="#000000" fill-opacity="1"><g transform="translate(247.702698, 352.499977)"><g><path d="M 21.296875 -9.546875 L 7.4375 -9.546875 C 7.59375 -7.671875 8.125 -6.304688 9.03125 -5.453125 C 9.945312 -4.609375 11.195312 -4.1875 12.78125 -4.1875 C 14.007812 -4.1875 15.007812 -4.414062 15.78125 -4.875 C 16.550781 -5.332031 17.171875 -6.03125 17.640625 -6.96875 L 18.046875 -6.96875 L 21.640625 -4.671875 C 20.941406 -3.160156 19.878906 -1.9375 18.453125 -1 C 17.035156 -0.0625 15.144531 0.40625 12.78125 0.40625 C 10.550781 0.40625 8.625 -0.015625 7 -0.859375 C 5.382812 -1.703125 4.132812 -2.960938 3.25 -4.640625 C 2.375 -6.316406 1.9375 -8.359375 1.9375 -10.765625 C 1.9375 -13.210938 2.394531 -15.273438 3.3125 -16.953125 C 4.238281 -18.628906 5.488281 -19.878906 7.0625 -20.703125 C 8.644531 -21.535156 10.421875 -21.953125 12.390625 -21.953125 C 15.429688 -21.953125 17.757812 -21.144531 19.375 -19.53125 C 21 -17.914062 21.8125 -15.546875 21.8125 -12.421875 C 21.8125 -11.285156 21.773438 -10.40625 21.703125 -9.78125 Z M 16.640625 -13.046875 C 16.585938 -14.691406 16.207031 -15.882812 15.5 -16.625 C 14.789062 -17.375 13.753906 -17.75 12.390625 -17.75 C 9.648438 -17.75 8.039062 -16.179688 7.5625 -13.046875 Z M 16.640625 -13.046875 "/></g></g></g><g fill="#000000" fill-opacity="1"><g transform="translate(271.118384, 352.499977)"><g/></g></g><g fill="#000000" fill-opacity="1"><g transform="translate(280.551062, 352.499977)"><g><path d="M 14.75 -28.5625 C 16.789062 -28.5625 18.535156 -28.1875 19.984375 -27.4375 C 21.441406 -26.6875 22.539062 -25.632812 23.28125 -24.28125 C 24.019531 -22.9375 24.390625 -21.375 24.390625 -19.59375 C 24.390625 -17.8125 24.019531 -16.25 23.28125 -14.90625 C 22.539062 -13.5625 21.441406 -12.515625 19.984375 -11.765625 C 18.535156 -11.015625 16.789062 -10.640625 14.75 -10.640625 L 9.359375 -10.640625 L 9.359375 0 L 3.71875 0 L 3.71875 -28.5625 Z M 14 -15.125 C 17.144531 -15.125 18.71875 -16.613281 18.71875 -19.59375 C 18.71875 -22.582031 17.144531 -24.078125 14 -24.078125 L 9.359375 -24.078125 L 9.359375 -15.125 Z M 14 -15.125 "/></g></g></g><g fill="#000000" fill-opacity="1"><g transform="translate(306.642262, 352.499977)"><g><path d="M 13.640625 0 L 7.328125 0 L 0.78125 -28.5625 L 6.40625 -28.5625 L 10.71875 -8.484375 L 11.21875 -8.484375 L 16.328125 -28.5625 L 21.15625 -28.5625 L 26.375 -8.484375 L 26.859375 -8.484375 L 31.1875 -28.5625 L 36.625 -28.5625 L 30.09375 0 L 23.765625 0 L 18.765625 -18.421875 L 18.359375 -18.421875 Z M 13.640625 0 "/></g></g></g><g fill="#000000" fill-opacity="1"><g transform="translate(344.021433, 352.499977)"><g><path d="M 27.40625 0 L 21.46875 0 L 19.3125 -6.578125 L 8.375 -6.578125 L 6.234375 0 L 0.4375 0 L 10.296875 -28.5625 L 17.546875 -28.5625 Z M 13.578125 -22.59375 L 9.90625 -11.328125 L 17.75 -11.328125 L 14.0625 -22.59375 Z M 13.578125 -22.59375 "/></g></g></g></svg>